<svg width="128" height="24" viewBox="0 0 128 24" fill="none" xmlns="http://www.w3.org/2000/svg">
<path fill-rule="evenodd" clip-rule="evenodd" d="M14.0843 0L0 23.8536H28.1686L14.0843 0ZM19.5613 18.9977L5.7719 23.74L14.0843 9.72194L19.5613 18.9977Z" fill="#3241F4"/>
<path fill-rule="evenodd" clip-rule="evenodd" d="M53.4159 5.4451H61.1791C64.6473 5.4451 67.261 7.99055 67.261 11.3682C67.261 14.7458 64.645 17.2924 61.1767 17.2924H56.2188V23.6685H53.4159V5.4451ZM56.2188 14.7027H61.1791C63.0694 14.7027 64.4836 13.2699 64.4813 11.3682C64.4813 9.43584 63.0914 8.03369 61.1767 8.03369H56.2188V14.7027Z" fill="#3241F4"/>
<path d="M74.482 8.03369H80.118C81.8109 8.03369 83.188 9.4381 83.188 11.165C83.188 12.8918 81.8109 14.3258 80.118 14.3258H78.1639L83.5271 23.6742H86.654L82.2963 16.4432C83.5625 15.9564 84.6144 15.0513 85.2694 13.8852C85.9244 12.7191 86.1411 11.3656 85.8819 10.0596C85.6227 8.75352 84.9039 7.57749 83.8504 6.7356C82.7969 5.89371 81.4751 5.43913 80.1146 5.45078H71.6732V23.6685H74.4785L74.482 8.03369Z" fill="#3241F4"/>
<path fill-rule="evenodd" clip-rule="evenodd" d="M89.6867 14.5562C89.6867 9.26099 93.9236 5.11358 99.324 5.11358C104.739 5.11358 108.982 9.26099 108.982 14.5562C108.982 19.8515 104.73 24 99.324 24C93.9178 24 89.6867 19.8515 89.6867 14.5562ZM92.4734 14.5562C92.4734 18.3426 95.4818 21.3081 99.324 21.3081C103.167 21.3081 106.177 18.3426 106.175 14.5562C106.175 10.6927 103.229 7.77937 99.324 7.77937C95.4191 7.77937 92.4734 10.6961 92.4734 14.5562Z" fill="#3241F4"/>
<path d="M125.195 5.44395V18.3471L115.146 5.44395H112.901V23.6685H115.706V10.7403L125.754 23.6685H128V5.44395H125.195Z" fill="#3241F4"/>
<path d="M42.7441 5.60744L50.361 23.5334H47.1563L41.0895 9.25416L35.0215 23.5334H31.8168L39.4349 5.60744H42.7441Z" fill="#3241F4"/>
</svg>
