<svg width="40" height="40" viewBox="0 0 40 40" fill="none" xmlns="http://www.w3.org/2000/svg">
<path d="M37.1886 7H18.8115C17.2618 7 16 8.19594 16 9.67802V27.254C16 28.736 17.2616 29.932 18.8114 29.932H34.3634L33.6365 27.527L35.392 29.074L37.0513 30.53L40 33V9.67802C40 8.19594 38.7384 7 37.1886 7ZM31.8948 23.9781C31.8948 23.9781 31.4011 23.4191 30.9897 22.925C32.7863 22.444 33.472 21.378 33.472 21.378C32.9097 21.7291 32.3748 21.9761 31.8948 22.1449C31.2091 22.418 30.5509 22.5999 29.9063 22.704C28.5897 22.9379 27.3827 22.873 26.3543 22.6909C25.5725 22.5478 24.9005 22.3399 24.3382 22.132C24.0227 22.0149 23.6799 21.872 23.337 21.69C23.2959 21.664 23.2548 21.6509 23.2136 21.625C23.1863 21.612 23.1724 21.5991 23.1588 21.586C22.912 21.456 22.7748 21.365 22.7748 21.365C22.7748 21.365 23.4332 22.405 25.1748 22.899C24.7634 23.393 24.256 23.978 24.256 23.978C21.2251 23.887 20.0732 22.0021 20.0732 22.0021C20.0732 17.816 22.048 14.423 22.048 14.423C24.0229 13.019 25.9018 13.058 25.9018 13.058L26.0389 13.2141C23.5703 13.8899 22.432 14.917 22.432 14.917C22.432 14.917 22.7336 14.761 23.241 14.54C24.7085 13.929 25.8743 13.76 26.3543 13.721C26.4365 13.708 26.5052 13.695 26.5875 13.695C27.5065 13.5816 28.4366 13.5728 29.3578 13.6691C30.6606 13.8121 32.0595 14.176 33.4857 14.917C33.4857 14.917 32.4023 13.942 30.0709 13.266L30.2629 13.0581C30.2629 13.0581 32.1416 13.0191 34.1166 14.4231C34.1166 14.4231 36.0915 17.816 36.0915 22.0021C36.0914 22.002 34.9257 23.887 31.8948 23.9781ZM25.5177 17.907C24.736 17.907 24.1189 18.557 24.1189 19.3499C24.1189 20.1429 24.7497 20.7929 25.5177 20.7929C26.2995 20.7929 26.9165 20.1429 26.9165 19.3499C26.9303 18.557 26.2995 17.907 25.5177 17.907ZM30.5235 17.907C29.7418 17.907 29.1246 18.557 29.1246 19.3499C29.1246 20.1429 29.7556 20.7929 30.5235 20.7929C31.3052 20.7929 31.9223 20.1429 31.9223 19.3499C31.9222 18.557 31.3052 17.907 30.5235 17.907Z" fill="#7289DA"/>
</svg>
