<svg width="40" height="40" viewBox="0 0 40 40" fill="none" xmlns="http://www.w3.org/2000/svg">
<path d="M27.3038 8C20.5095 8 15 13.5085 15 20.3038C15 25.74 18.5254 30.3519 23.4141 31.9789C24.029 32.0927 24.2548 31.712 24.2548 31.387C24.2548 31.0936 24.2433 30.1243 24.2381 29.0962C20.8151 29.8405 20.0928 27.6446 20.0928 27.6446C19.5331 26.2224 18.7267 25.8443 18.7267 25.8443C17.6104 25.0806 18.8109 25.0963 18.8109 25.0963C20.0464 25.1831 20.697 26.3642 20.697 26.3642C21.7943 28.2452 23.5753 27.7014 24.2774 27.3871C24.3878 26.5918 24.7067 26.0491 25.0585 25.7419C22.3257 25.4308 19.4529 24.3757 19.4529 19.6613C19.4529 18.3181 19.9335 17.2205 20.7206 16.3588C20.5929 16.0487 20.1717 14.7974 20.8398 13.1027C20.8398 13.1027 21.873 12.7719 24.2242 14.3639C25.2056 14.0912 26.2582 13.9545 27.3038 13.95C28.3494 13.9546 29.4028 14.0913 30.386 14.3639C32.7345 12.772 33.7662 13.1027 33.7662 13.1027C34.4359 14.7974 34.0146 16.0487 33.8869 16.3587C34.6757 17.2204 35.153 18.3179 35.153 19.6612C35.153 24.3868 32.2747 25.4274 29.5351 25.732C29.9764 26.1139 30.3695 26.8627 30.3695 28.0106C30.3695 29.6568 30.3552 30.9817 30.3552 31.3871C30.3552 31.7144 30.5767 32.0981 31.2005 31.9774C36.0864 30.3486 39.6074 25.7383 39.6074 20.3039C39.6074 13.5085 34.0987 8 27.3038 8Z" fill="#161614"/>
<path d="M19.6082 25.5267C19.5813 25.5878 19.4849 25.6062 19.3974 25.5643C19.3081 25.5242 19.2579 25.4408 19.2869 25.3794C19.3135 25.3165 19.4097 25.299 19.4988 25.3412C19.5883 25.3812 19.6392 25.4654 19.6082 25.5267ZM20.2135 26.0668C20.1548 26.1212 20.04 26.0959 19.9622 26.0099C19.8817 25.9242 19.8666 25.8095 19.9262 25.7542C19.9867 25.6999 20.0979 25.7253 20.1787 25.8111C20.2591 25.8979 20.2747 26.0118 20.2135 26.0668ZM20.6287 26.7577C20.5532 26.81 20.4299 26.7609 20.3538 26.6515C20.2784 26.5422 20.2784 26.4109 20.3554 26.3584C20.4318 26.3058 20.5533 26.353 20.6304 26.4616C20.7056 26.5729 20.7056 26.7041 20.6287 26.7577ZM21.3307 27.558C21.2632 27.6323 21.1197 27.6124 21.0145 27.5108C20.907 27.4116 20.877 27.2708 20.9447 27.1964C21.0128 27.1219 21.1573 27.1428 21.2633 27.2435C21.3702 27.3425 21.4028 27.4843 21.3307 27.558ZM22.2382 27.8281C22.2086 27.9245 22.0702 27.9682 21.9309 27.9273C21.7918 27.8851 21.7007 27.7723 21.7287 27.6749C21.7577 27.5779 21.8966 27.5323 22.037 27.576C22.176 27.618 22.2673 27.7301 22.2382 27.8281ZM23.2711 27.9426C23.2746 28.0441 23.1564 28.1283 23.01 28.1301C22.8629 28.1333 22.7439 28.0511 22.7424 27.9513C22.7424 27.8489 22.8579 27.7655 23.0049 27.7631C23.1512 27.7602 23.2711 27.8419 23.2711 27.9426ZM24.2857 27.9038C24.3033 28.0028 24.2015 28.1045 24.0564 28.1316C23.9136 28.1577 23.7814 28.0965 23.7631 27.9984C23.7453 27.8969 23.849 27.7952 23.9915 27.7689C24.137 27.7436 24.2671 27.8031 24.2857 27.9038Z" fill="#161614"/>
</svg>
