<svg width="40" height="40" viewBox="0 0 40 40" fill="none" xmlns="http://www.w3.org/2000/svg">
<path d="M14.8098 10C20.2283 10 24.6196 14.4776 24.6196 20.0007C24.6196 25.5238 20.2269 30 14.8098 30C9.39266 30 5 25.5224 5 20.0007C5 14.479 9.39266 10 14.8098 10ZM30.4755 10.586C33.1848 10.586 35.3804 14.8009 35.3804 20.0007C35.3804 25.1991 33.1848 29.4154 30.4755 29.4154C27.7663 29.4154 25.5707 25.1991 25.5707 20.0007C25.5707 14.8023 27.7663 10.586 30.4755 10.586ZM38.0571 11.5668C39.0095 11.5668 39.7826 15.3429 39.7826 20.0007C39.7826 24.6571 39.0109 28.4346 38.0571 28.4346C37.1033 28.4346 36.3329 24.6585 36.3329 20.0007C36.3329 15.3429 37.1046 11.5668 38.0571 11.5668Z" fill="black"/>
</svg>
