<svg width="40" height="40" viewBox="0 0 40 40" fill="none" xmlns="http://www.w3.org/2000/svg">
<path d="M28 32C34.6274 32 40 26.6274 40 20C40 13.3726 34.6274 8 28 8C21.3726 8 16 13.3726 16 20C16 26.6274 21.3726 32 28 32Z" fill="url(#paint0_linear)"/>
<path fill-rule="evenodd" clip-rule="evenodd" d="M21.4319 19.8734L28.43 16.859C31.7625 15.4728 32.455 15.232 32.9064 15.2241C33.0056 15.2224 33.2276 15.2469 33.3714 15.3636C33.4928 15.4621 33.5261 15.5951 33.5422 15.6885C33.5582 15.7819 33.5781 15.9947 33.5622 16.1609C33.3817 18.0584 32.6002 22.6631 32.2027 24.7883C32.0344 25.6876 31.7035 25.989 31.3826 26.0186C30.6857 26.0827 30.1565 25.5581 29.4816 25.1156L26.8036 23.3168C25.6187 22.5361 26.3868 22.107 27.062 21.4057C27.2387 21.2221 30.3091 18.4293 30.3685 18.176C30.3757 18.1443 30.3828 18.0262 30.3127 17.9638C30.2427 17.9014 30.139 17.923 30.0643 17.9397C29.9584 17.9638 28.2711 19.079 25.0027 21.2853C24.5237 21.6142 24.0899 21.7744 23.7013 21.766C23.2729 21.7568 22.4487 21.5238 21.8359 21.3246C21.0845 21.0804 20.4871 20.9512 20.5392 20.5363C20.5662 20.3203 20.8638 20.0994 21.4319 19.8734Z" fill="#FCFDFF"/>
<defs>
<linearGradient id="paint0_linear" x1="28" y1="8" x2="28" y2="31.8248" gradientUnits="userSpaceOnUse">
<stop stop-color="#2AABEE"/>
<stop offset="1" stop-color="#229ED9"/>
</linearGradient>
</defs>
</svg>
