<svg width="40" height="40" viewBox="0 0 40 40" fill="none" xmlns="http://www.w3.org/2000/svg">
<path d="M28 32C34.6274 32 40 26.6274 40 20C40 13.3726 34.6274 8 28 8C21.3726 8 16 13.3726 16 20C16 26.6274 21.3726 32 28 32Z" fill="#1DA1F2"/>
<path d="M25.3846 25.7294C30.7054 25.7294 33.6153 21.3212 33.6153 17.4986C33.6153 17.3732 33.613 17.2484 33.607 17.1248C34.1716 16.7162 34.663 16.2068 35.0499 15.6272C34.5316 15.8576 33.9735 16.0124 33.3885 16.0826C33.9855 15.7244 34.4446 15.158 34.6606 14.4824C34.1014 14.8136 33.4827 15.0548 32.8239 15.1844C32.2959 14.6222 31.5442 14.2706 30.7126 14.2706C29.1148 14.2706 27.8194 15.566 27.8194 17.1632C27.8194 17.39 27.8446 17.6108 27.8944 17.8226C25.4902 17.702 23.3584 16.5506 21.9316 14.8004C21.6832 15.2276 21.5398 15.7244 21.5398 16.2542C21.5398 17.258 22.0504 18.1436 22.8274 18.662C22.3528 18.6476 21.907 18.5168 21.517 18.3002C21.5164 18.3122 21.5164 18.3242 21.5164 18.3368C21.5164 19.7378 22.5136 20.9078 23.8372 21.173C23.5942 21.239 23.3386 21.275 23.0746 21.275C22.888 21.275 22.7068 21.2564 22.531 21.2228C22.8994 22.3718 23.9674 23.2082 25.2334 23.2322C24.2428 24.008 22.9954 24.47 21.64 24.47C21.4066 24.47 21.1762 24.4568 20.95 24.4298C22.2304 25.2506 23.7502 25.7294 25.3846 25.7294Z" fill="#FCFDFF"/>
</svg>
